<?xml version="1.0" encoding="UTF-8"?>
<svg id="Capa_1" data-name="Capa 1" xmlns="http://www.w3.org/2000/svg" viewBox="0 0 55 50">
  <defs>
    <style>
      .cls-1 {
        fill: none;
        stroke-miterlimit: 10;
      }

      .cls-1, .cls-2 {
        stroke: #e56143;
        stroke-width: 1.2px;
      }

      .cls-2, .cls-3 {
        fill: #e56143;
      }

      .cls-3 {
        stroke-width: 0px;
      }
    </style>
  </defs>
  <path class="cls-2" d="m20.1,3.25h-10.38c-.52,0-.94.42-.94.94v40.12c0,.52.42.94.94.94h15.32c.52,0,.94-.42.94-.94v-2.84c0-.52-.42-.94-.94-.94-1.31,0-3.72,0-5.37,0h-4.19c-.52,0-.94-.42-.94-.94V8.92c0-.52.42-.94.94-.94h4.19c10.06,0,14.25,7.15,14.67,17.63.02.51.43.91.94.91h4.07c.53,0,.96-.44.94-.97-.52-13.38-6.84-22.3-20.19-22.3Z"/>
  <g>
    <path class="cls-3" d="m29.97,23.31c.96,0,1.73.78,1.73,1.73s-.78,1.73-1.73,1.73-1.73-.78-1.73-1.73.78-1.73,1.73-1.73m0-1.2c-1.62,0-2.93,1.31-2.93,2.93s1.31,2.93,2.93,2.93,2.93-1.31,2.93-2.93-1.31-2.93-2.93-2.93h0Z"/>
    <path class="cls-3" d="m29.97,23.31c.96,0,1.73.78,1.73,1.73s-.78,1.73-1.73,1.73-1.73-.78-1.73-1.73.78-1.73,1.73-1.73m0-1.2c-1.62,0-2.93,1.31-2.93,2.93s1.31,2.93,2.93,2.93,2.93-1.31,2.93-2.93-1.31-2.93-2.93-2.93h0Z"/>
    <path class="cls-3" d="m29.97,43.28c.96,0,1.73.78,1.73,1.73s-.78,1.73-1.73,1.73-1.73-.78-1.73-1.73.78-1.73,1.73-1.73m0-1.2c-1.62,0-2.93,1.31-2.93,2.93s1.31,2.93,2.93,2.93,2.93-1.31,2.93-2.93-1.31-2.93-2.93-2.93h0Z"/>
    <path class="cls-3" d="m44.48,23.31c.96,0,1.73.78,1.73,1.73s-.78,1.73-1.73,1.73-1.73-.78-1.73-1.73.78-1.73,1.73-1.73m0-1.2c-1.62,0-2.93,1.31-2.93,2.93s1.31,2.93,2.93,2.93,2.93-1.31,2.93-2.93-1.31-2.93-2.93-2.93h0Z"/>
    <path class="cls-3" d="m44.48,23.31c.96,0,1.73.78,1.73,1.73s-.78,1.73-1.73,1.73-1.73-.78-1.73-1.73.78-1.73,1.73-1.73m0-1.2c-1.62,0-2.93,1.31-2.93,2.93s1.31,2.93,2.93,2.93,2.93-1.31,2.93-2.93-1.31-2.93-2.93-2.93h0Z"/>
    <path class="cls-3" d="m39.32,32.62c.96,0,1.73.78,1.73,1.73s-.78,1.73-1.73,1.73-1.73-.78-1.73-1.73.78-1.73,1.73-1.73m0-1.2c-1.62,0-2.93,1.31-2.93,2.93s1.31,2.93,2.93,2.93,2.93-1.31,2.93-2.93-1.31-2.93-2.93-2.93h0Z"/>
    <path class="cls-3" d="m44.48,43.28c.96,0,1.73.78,1.73,1.73s-.78,1.73-1.73,1.73-1.73-.78-1.73-1.73.78-1.73,1.73-1.73m0-1.2c-1.62,0-2.93,1.31-2.93,2.93s1.31,2.93,2.93,2.93,2.93-1.31,2.93-2.93-1.31-2.93-2.93-2.93h0Z"/>
    <line class="cls-1" x1="29.97" y1="26.77" x2="29.97" y2="43.28"/>
    <line class="cls-1" x1="44.48" y1="26.77" x2="44.48" y2="43.28"/>
    <line class="cls-1" x1="29.97" y1="34.35" x2="37.59" y2="34.35"/>
    <line class="cls-1" x1="41.24" y1="34.35" x2="44.48" y2="34.35"/>
  </g>
</svg>