<?xml version="1.0" encoding="UTF-8"?>
<svg id="Capa_1" data-name="Capa 1" xmlns="http://www.w3.org/2000/svg" viewBox="0 0 55 20.54">
  <defs>
    <style>
      .cls-1 {
        fill: none;
        stroke: #e56143;
        stroke-miterlimit: 10;
        stroke-width: .38px;
      }

      .cls-2 {
        fill: #e56143;
        stroke-width: 0px;
      }
    </style>
  </defs>
  <g>
    <path class="cls-2" d="m18.92,14.72v-3.86h.8c.58,0,.99.05,1.26.14.37.13.67.36.88.68.21.32.32.71.32,1.16,0,.39-.08.73-.25,1.02-.17.29-.38.51-.65.65-.27.14-.64.21-1.12.21h-1.23Zm.37-.36h.45c.53,0,.9-.03,1.11-.1.29-.09.52-.26.68-.51.17-.25.25-.54.25-.9,0-.37-.09-.69-.27-.95s-.43-.44-.75-.54c-.24-.07-.64-.11-1.19-.11h-.27v3.12Z"/>
    <path class="cls-2" d="m24.49,10.87l1.8,3.86h-.42l-.61-1.27h-1.66l-.6,1.27h-.43l1.82-3.86h.09Zm-.05.82l-.66,1.4h1.32l-.66-1.4Z"/>
    <path class="cls-2" d="m26.5,11.24v-.38h2.11v.38h-.86v3.48h-.39v-3.48h-.86Z"/>
    <path class="cls-2" d="m30.75,10.87l1.8,3.86h-.42l-.61-1.27h-1.66l-.6,1.27h-.43l1.82-3.86h.09Zm-.05.82l-.66,1.4h1.32l-.66-1.4Z"/>
    <path class="cls-2" d="m33.14,10.87h.39v1.62h1.96v-1.62h.39v3.86h-.39v-1.86h-1.96v1.86h-.39v-3.86Z"/>
    <path class="cls-2" d="m38.65,10.77c.58,0,1.07.19,1.47.58.39.39.59.87.59,1.44s-.2,1.04-.59,1.44c-.39.39-.87.59-1.44.59s-1.05-.2-1.45-.59-.59-.87-.59-1.42c0-.37.09-.71.27-1.03.18-.32.42-.56.73-.74.31-.18.64-.27,1-.27Zm.02.38c-.29,0-.56.07-.81.22-.26.15-.46.35-.6.6s-.22.53-.22.84c0,.46.16.85.48,1.16.32.32.7.47,1.15.47.3,0,.58-.07.83-.22.25-.15.45-.34.6-.6s.21-.53.21-.84-.07-.58-.21-.83c-.14-.25-.34-.45-.6-.59-.26-.15-.53-.22-.83-.22Z"/>
    <path class="cls-2" d="m41.48,10.87h.38v3.48h1.48v.37h-1.87v-3.86Z"/>
    <path class="cls-2" d="m43.91,10.87h.39v3.86h-.39v-3.86Z"/>
    <path class="cls-2" d="m48.77,11.58l-.3.23c-.17-.22-.37-.38-.6-.5-.24-.11-.49-.17-.77-.17-.31,0-.59.07-.86.22-.26.15-.46.35-.61.6s-.22.53-.22.84c0,.47.16.86.48,1.18.32.31.73.47,1.22.47.54,0,.99-.21,1.36-.63l.3.23c-.19.24-.43.43-.72.57-.29.13-.61.2-.96.2-.67,0-1.21-.22-1.6-.67-.33-.38-.49-.84-.49-1.37,0-.56.2-1.04.59-1.42.4-.39.89-.58,1.49-.58.36,0,.69.07.98.21s.53.34.71.6Z"/>
    <path class="cls-2" d="m49.14,14l.33-.2c.23.42.5.64.8.64.13,0,.25-.03.36-.09.11-.06.2-.14.26-.24.06-.1.09-.21.09-.32,0-.13-.04-.26-.13-.38-.12-.17-.34-.38-.66-.62-.32-.24-.52-.42-.6-.53-.14-.18-.21-.38-.21-.59,0-.17.04-.32.12-.46.08-.14.19-.25.34-.33.15-.08.3-.12.48-.12.18,0,.35.04.51.14.16.09.33.26.5.5l-.31.24c-.14-.19-.27-.32-.37-.38s-.21-.09-.33-.09c-.16,0-.28.05-.38.14s-.15.21-.15.35c0,.08.02.17.05.24.04.08.1.16.19.26.05.05.22.18.5.39.33.25.56.47.69.66s.19.39.19.58c0,.28-.11.52-.32.73-.21.21-.47.31-.77.31-.23,0-.45-.06-.64-.19s-.37-.33-.53-.63Z"/>
  </g>
  <path class="cls-2" d="m6.87,3.12h-3.32c-.27,0-.49.22-.49.49v12.83c0,.27.22.49.49.49h4.9c.27,0,.49-.22.49-.49v-.91c0-.27-.22-.49-.49-.49h-3.06c-.06,0-.11-.05-.11-.11V5.13c0-.06.05-.11.11-.11h1.34c2.84,0,4.36,1.84,4.5,5.46.01.27.23.48.49.48h1.3c.13,0,.26-.06.36-.15.09-.1.14-.22.14-.36-.18-4.72-2.54-7.32-6.65-7.32Z"/>
  <path class="cls-2" d="m10.03,9.73c.23,0,.44.14.52.36.11.29-.04.61-.33.71-.06.02-.13.03-.19.03-.23,0-.44-.14-.52-.36-.11-.29.04-.61.33-.71.06-.02.13-.03.19-.03m0-.38h0c-.11,0-.22.02-.32.06-.24.09-.42.26-.53.49-.11.23-.12.48-.03.72.13.37.49.61.88.61.11,0,.22-.02.32-.06.24-.09.42-.26.53-.49.11-.23.12-.48.03-.72-.13-.37-.49-.61-.88-.61h0Z"/>
  <path class="cls-2" d="m10.03,16.12c.31,0,.55.25.55.55s-.25.55-.55.55-.55-.25-.55-.55.25-.55.55-.55m0-.38c-.52,0-.94.42-.94.94s.42.94.94.94.94-.42.94-.94-.42-.94-.94-.94h0Z"/>
  <path class="cls-2" d="m14.67,9.73c.31,0,.55.25.55.55s-.25.55-.55.55-.55-.25-.55-.55.25-.55.55-.55m0-.38c-.52,0-.94.42-.94.94s.42.94.94.94.94-.42.94-.94-.42-.94-.94-.94h0Z"/>
  <path class="cls-2" d="m14.67,9.73c.31,0,.55.25.55.55s-.25.55-.55.55-.55-.25-.55-.55.25-.55.55-.55m0-.38c-.52,0-.94.42-.94.94s.42.94.94.94.94-.42.94-.94-.42-.94-.94-.94h0Z"/>
  <path class="cls-2" d="m13.02,12.71c.31,0,.55.25.55.55s-.25.55-.55.55-.55-.25-.55-.55.25-.55.55-.55m0-.38c-.52,0-.94.42-.94.94s.42.94.94.94.94-.42.94-.94-.42-.94-.94-.94h0Z"/>
  <path class="cls-2" d="m14.67,16.12c.31,0,.55.25.55.55s-.25.55-.55.55-.55-.25-.55-.55.25-.55.55-.55m0-.38c-.52,0-.94.42-.94.94s.42.94.94.94.94-.42.94-.94-.42-.94-.94-.94h0Z"/>
  <line class="cls-1" x1="10.03" y1="10.84" x2="10.03" y2="16.12"/>
  <line class="cls-1" x1="14.67" y1="10.84" x2="14.67" y2="16.12"/>
  <line class="cls-1" x1="10.03" y1="13.26" x2="12.47" y2="13.26"/>
  <line class="cls-1" x1="13.63" y1="13.26" x2="14.67" y2="13.26"/>
</svg>