<?xml version="1.0" encoding="UTF-8"?>
<svg id="Capa_1" data-name="Capa 1" xmlns="http://www.w3.org/2000/svg" viewBox="0 0 55 50">
  <defs>
    <style>
      .cls-1 {
        fill: none;
        stroke-miterlimit: 10;
      }

      .cls-1, .cls-2 {
        stroke: #e56143;
        stroke-width: .42px;
      }

      .cls-3 {
        font-family: CenturyGothic, 'Century Gothic';
        font-size: 5.82px;
      }

      .cls-3, .cls-4, .cls-2 {
        fill: #e56143;
      }

      .cls-4 {
        stroke-width: 0px;
      }
    </style>
  </defs>
  <text class="cls-3" transform="translate(17.6 28.9)"><tspan x="0" y="0">DATAHOLICS</tspan></text>
  <g>
    <path class="cls-2" d="m5.04,16.53H1.44c-.18,0-.33.15-.33.33v13.92c0,.18.15.33.33.33h5.31c.18,0,.33-.15.33-.33v-.99c0-.18-.15-.33-.33-.33-.46,0-1.29,0-1.86,0h-1.46c-.18,0-.33-.15-.33-.33v-10.64c0-.18.15-.33.33-.33h1.46c3.49,0,4.94,2.48,5.09,6.12,0,.18.15.32.33.32h1.41c.18,0,.33-.15.33-.34-.18-4.64-2.37-7.74-7.01-7.74Z"/>
    <g>
      <path class="cls-4" d="m8.47,23.49c.33,0,.6.27.6.6s-.27.6-.6.6-.6-.27-.6-.6.27-.6.6-.6m0-.42c-.56,0-1.02.46-1.02,1.02s.46,1.02,1.02,1.02,1.02-.46,1.02-1.02-.46-1.02-1.02-1.02h0Z"/>
      <path class="cls-4" d="m8.47,23.49c.33,0,.6.27.6.6s-.27.6-.6.6-.6-.27-.6-.6.27-.6.6-.6m0-.42c-.56,0-1.02.46-1.02,1.02s.46,1.02,1.02,1.02,1.02-.46,1.02-1.02-.46-1.02-1.02-1.02h0Z"/>
      <path class="cls-4" d="m8.47,30.42c.33,0,.6.27.6.6s-.27.6-.6.6-.6-.27-.6-.6.27-.6.6-.6m0-.42c-.56,0-1.02.46-1.02,1.02s.46,1.02,1.02,1.02,1.02-.46,1.02-1.02-.46-1.02-1.02-1.02h0Z"/>
      <path class="cls-4" d="m13.5,23.49c.33,0,.6.27.6.6s-.27.6-.6.6-.6-.27-.6-.6.27-.6.6-.6m0-.42c-.56,0-1.02.46-1.02,1.02s.46,1.02,1.02,1.02,1.02-.46,1.02-1.02-.46-1.02-1.02-1.02h0Z"/>
      <path class="cls-4" d="m13.5,23.49c.33,0,.6.27.6.6s-.27.6-.6.6-.6-.27-.6-.6.27-.6.6-.6m0-.42c-.56,0-1.02.46-1.02,1.02s.46,1.02,1.02,1.02,1.02-.46,1.02-1.02-.46-1.02-1.02-1.02h0Z"/>
      <path class="cls-4" d="m11.71,26.72c.33,0,.6.27.6.6s-.27.6-.6.6-.6-.27-.6-.6.27-.6.6-.6m0-.42c-.56,0-1.02.46-1.02,1.02s.46,1.02,1.02,1.02,1.02-.46,1.02-1.02-.46-1.02-1.02-1.02h0Z"/>
      <path class="cls-4" d="m13.5,30.42c.33,0,.6.27.6.6s-.27.6-.6.6-.6-.27-.6-.6.27-.6.6-.6m0-.42c-.56,0-1.02.46-1.02,1.02s.46,1.02,1.02,1.02,1.02-.46,1.02-1.02-.46-1.02-1.02-1.02h0Z"/>
      <line class="cls-1" x1="8.47" y1="24.69" x2="8.47" y2="30.42"/>
      <line class="cls-1" x1="13.5" y1="24.69" x2="13.5" y2="30.42"/>
      <line class="cls-1" x1="8.47" y1="27.32" x2="11.11" y2="27.32"/>
      <line class="cls-1" x1="12.38" y1="27.32" x2="13.5" y2="27.32"/>
    </g>
  </g>
</svg>