<?xml version="1.0" encoding="UTF-8"?>
<svg id="Capa_1" data-name="Capa 1" xmlns="http://www.w3.org/2000/svg" viewBox="0 0 55 20.54">
  <defs>
    <style>
      .cls-1 {
        font-family: CenturyGothic, 'Century Gothic';
        font-size: 5.37px;
      }

      .cls-1, .cls-2 {
        fill: #e56143;
      }

      .cls-3 {
        fill: none;
        stroke: #e56143;
        stroke-miterlimit: 10;
        stroke-width: .38px;
      }

      .cls-2 {
        stroke-width: 0px;
      }
    </style>
  </defs>
  <text class="cls-1" transform="translate(18.45 14.72)"><tspan x="0" y="0">DATAHOLICS</tspan></text>
  <path class="cls-2" d="m6.87,3.12h-3.32c-.27,0-.49.22-.49.49v12.83c0,.27.22.49.49.49h4.9c.27,0,.49-.22.49-.49v-.91c0-.27-.22-.49-.49-.49h-3.06c-.06,0-.11-.05-.11-.11V5.13c0-.06.05-.11.11-.11h1.34c2.84,0,4.36,1.84,4.5,5.46.01.27.23.48.49.48h1.3c.13,0,.26-.06.36-.15.09-.1.14-.22.14-.36-.18-4.72-2.54-7.32-6.65-7.32Z"/>
  <path class="cls-2" d="m10.03,9.73c.23,0,.44.14.52.36.11.29-.04.61-.33.71-.06.02-.13.03-.19.03-.23,0-.44-.14-.52-.36-.11-.29.04-.61.33-.71.06-.02.13-.03.19-.03m0-.38h0c-.11,0-.22.02-.32.06-.24.09-.42.26-.53.49-.11.23-.12.48-.03.72.13.37.49.61.88.61.11,0,.22-.02.32-.06.24-.09.42-.26.53-.49.11-.23.12-.48.03-.72-.13-.37-.49-.61-.88-.61h0Z"/>
  <path class="cls-2" d="m10.03,16.12c.31,0,.55.25.55.55s-.25.55-.55.55-.55-.25-.55-.55.25-.55.55-.55m0-.38c-.52,0-.94.42-.94.94s.42.94.94.94.94-.42.94-.94-.42-.94-.94-.94h0Z"/>
  <path class="cls-2" d="m14.67,9.73c.31,0,.55.25.55.55s-.25.55-.55.55-.55-.25-.55-.55.25-.55.55-.55m0-.38c-.52,0-.94.42-.94.94s.42.94.94.94.94-.42.94-.94-.42-.94-.94-.94h0Z"/>
  <path class="cls-2" d="m14.67,9.73c.31,0,.55.25.55.55s-.25.55-.55.55-.55-.25-.55-.55.25-.55.55-.55m0-.38c-.52,0-.94.42-.94.94s.42.94.94.94.94-.42.94-.94-.42-.94-.94-.94h0Z"/>
  <path class="cls-2" d="m13.02,12.71c.31,0,.55.25.55.55s-.25.55-.55.55-.55-.25-.55-.55.25-.55.55-.55m0-.38c-.52,0-.94.42-.94.94s.42.94.94.94.94-.42.94-.94-.42-.94-.94-.94h0Z"/>
  <path class="cls-2" d="m14.67,16.12c.31,0,.55.25.55.55s-.25.55-.55.55-.55-.25-.55-.55.25-.55.55-.55m0-.38c-.52,0-.94.42-.94.94s.42.94.94.94.94-.42.94-.94-.42-.94-.94-.94h0Z"/>
  <line class="cls-3" x1="10.03" y1="10.84" x2="10.03" y2="16.12"/>
  <line class="cls-3" x1="14.67" y1="10.84" x2="14.67" y2="16.12"/>
  <line class="cls-3" x1="10.03" y1="13.26" x2="12.47" y2="13.26"/>
  <line class="cls-3" x1="13.63" y1="13.26" x2="14.67" y2="13.26"/>
</svg>